<svg width="299" height="85" viewBox="0 0 299 85" fill="none" xmlns="http://www.w3.org/2000/svg">
<path d="M7.51152e-06 83.1708V25.3939H14.4442V32.9655H16.541C17.4729 30.9464 19.2201 29.0438 21.7828 27.2577C24.3455 25.3939 28.2284 24.462 33.4314 24.462C37.9355 24.462 41.8572 25.5104 45.1965 27.6071C48.6134 29.6262 51.2537 32.4607 53.1175 36.1106C54.9813 39.6828 55.9131 43.8763 55.9131 48.691V83.1708H41.2359V49.8559C41.2359 45.5071 40.1487 42.2455 37.9743 40.0711C35.8776 37.8967 32.849 36.8095 28.8885 36.8095C24.3844 36.8095 20.8898 38.3238 18.4048 41.3524C15.9197 44.3034 14.6772 48.4581 14.6772 53.8164V83.1708H7.51152e-06ZM71.7798 83.1708V25.3939H86.457V83.1708H71.7798ZM79.1184 18.6377C76.478 18.6377 74.226 17.7835 72.3622 16.075C70.5761 14.3666 69.683 12.1145 69.683 9.31886C69.683 6.5232 70.5761 4.27114 72.3622 2.56268C74.226 0.854224 76.478 -5.35732e-06 79.1184 -5.35732e-06C81.8364 -5.35732e-06 84.0884 0.854224 85.8745 2.56268C87.6607 4.27114 88.5537 6.5232 88.5537 9.31886C88.5537 12.1145 87.6607 14.3666 85.8745 16.075C84.0884 17.7835 81.8364 18.6377 79.1184 18.6377ZM126.018 84.8016C121.437 84.8016 117.127 83.6756 113.089 81.4235C109.128 79.0938 105.944 75.7157 103.537 71.2892C101.129 66.8628 99.9256 61.5044 99.9256 55.2142V53.3505C99.9256 47.0602 101.129 41.7019 103.537 37.2754C105.944 32.849 109.128 29.5097 113.089 27.2577C117.049 24.9279 121.359 23.7631 126.018 23.7631C129.513 23.7631 132.425 24.1902 134.755 25.0444C137.162 25.821 139.104 26.8305 140.579 28.0731C142.055 29.3156 143.181 30.6357 143.957 32.0336H146.054V1.63079H160.731V83.1708H146.287V76.1816H144.19C142.87 78.356 140.812 80.3363 138.016 82.1224C135.298 83.9085 131.299 84.8016 126.018 84.8016ZM130.445 71.9882C134.949 71.9882 138.715 70.5515 141.744 67.6782C144.773 64.7272 146.287 60.4561 146.287 54.8648V53.6999C146.287 48.1086 144.773 43.8763 141.744 41.003C138.793 38.052 135.027 36.5765 130.445 36.5765C125.941 36.5765 122.174 38.052 119.146 41.003C116.117 43.8763 114.603 48.1086 114.603 53.6999V54.8648C114.603 60.4561 116.117 64.7272 119.146 67.6782C122.174 70.5515 125.941 71.9882 130.445 71.9882ZM203.329 84.8016C197.583 84.8016 192.496 83.5979 188.07 81.1905C183.721 78.7055 180.304 75.2498 177.819 70.8233C175.412 66.3192 174.208 61.0385 174.208 54.9813V53.5834C174.208 47.5262 175.412 42.2843 177.819 37.8579C180.226 33.3537 183.605 29.898 187.953 27.4906C192.302 25.0056 197.35 23.7631 203.096 23.7631C208.765 23.7631 213.697 25.0444 217.89 27.6071C222.084 30.0921 225.345 33.5867 227.675 38.0908C230.005 42.5173 231.17 47.6815 231.17 53.5834V58.5923H189.118C189.273 62.5528 190.749 65.7756 193.545 68.2606C196.34 70.7456 199.757 71.9882 203.795 71.9882C207.911 71.9882 210.94 71.0951 212.881 69.309C214.823 67.5229 216.298 65.5426 217.308 63.3682L229.306 69.6584C228.219 71.6775 226.627 73.8908 224.53 76.2981C222.511 78.6278 219.793 80.6469 216.376 82.3554C212.959 83.9862 208.61 84.8016 203.329 84.8016ZM189.235 47.6427H216.259C215.949 44.3034 214.59 41.6242 212.182 39.6051C209.853 37.5861 206.785 36.5765 202.98 36.5765C199.019 36.5765 195.874 37.5861 193.545 39.6051C191.215 41.6242 189.778 44.3034 189.235 47.6427ZM235.354 83.1708L256.321 54.0494L235.587 25.3939H252.594L265.757 44.614H267.853L281.016 25.3939H298.023L277.289 54.0494L298.256 83.1708H281.016L267.853 63.7177H265.757L252.594 83.1708H235.354Z" fill="white"/>
</svg>
